<svg width="26" height="26" viewBox="0 0 26 26" fill="none" xmlns="http://www.w3.org/2000/svg">
<g clip-path="url(#clip0_0_10)">
<g clip-path="url(#clip1_0_10)">
<mask id="mask0_0_10" style="mask-type:luminance" maskUnits="userSpaceOnUse" x="0" y="0" width="26" height="26">
<path d="M25.5 0.988159H0.5V25.9882H25.5V0.988159Z" fill="white"/>
</mask>
<g mask="url(#mask0_0_10)">
<path d="M13 3.33191C10.9913 3.33191 9.02768 3.92756 7.35749 5.04355C5.68731 6.15953 4.38556 7.74572 3.61685 9.60153C2.84815 11.4574 2.64702 13.4995 3.0389 15.4696C3.43079 17.4397 4.39807 19.2494 5.81845 20.6698C7.23883 22.0901 9.0485 23.0574 11.0186 23.4493C12.9887 23.8412 15.0308 23.6401 16.8866 22.8714C18.7424 22.1026 20.3286 20.8009 21.4446 19.1307C22.5606 17.4605 23.1563 15.4969 23.1563 13.4882C23.1534 10.7954 22.0825 8.2138 20.1784 6.30975C18.2744 4.4057 15.6927 3.33475 13 3.33191ZM18.7764 11.8622L14.2695 13.7929L17.5049 17.6757C17.6375 17.835 17.7014 18.0404 17.6825 18.2468C17.6637 18.4532 17.5636 18.6437 17.4043 18.7763C17.245 18.9089 17.0396 18.9728 16.8332 18.9539C16.6268 18.9351 16.4363 18.835 16.3037 18.6757L13 14.7089L9.69434 18.6757C9.56173 18.835 9.37128 18.9351 9.16488 18.9539C8.95848 18.9728 8.75304 18.9089 8.59375 18.7763C8.43447 18.6437 8.33439 18.4532 8.31552 18.2468C8.29666 18.0404 8.36056 17.835 8.49317 17.6757L11.7305 13.7929L7.22364 11.8622C7.1264 11.8239 7.03784 11.7664 6.96321 11.6932C6.88859 11.6201 6.8294 11.5326 6.78916 11.4362C6.74893 11.3397 6.72845 11.2362 6.72896 11.1316C6.72947 11.0271 6.75095 10.9237 6.79212 10.8276C6.8333 10.7316 6.89333 10.6447 6.96867 10.5723C7.044 10.4998 7.13311 10.4432 7.23072 10.4058C7.32833 10.3684 7.43244 10.351 7.5369 10.3546C7.64137 10.3582 7.74405 10.3827 7.83887 10.4266L12.2188 12.3036V7.8241C12.2188 7.6169 12.3011 7.41818 12.4476 7.27167C12.5941 7.12516 12.7928 7.04285 13 7.04285C13.2072 7.04285 13.4059 7.12516 13.5524 7.27167C13.6989 7.41818 13.7813 7.6169 13.7813 7.8241V12.3036L18.1611 10.4266C18.256 10.3827 18.3586 10.3582 18.4631 10.3546C18.5676 10.351 18.6717 10.3684 18.7693 10.4058C18.8669 10.4432 18.956 10.4998 19.0313 10.5723C19.1067 10.6447 19.1667 10.7316 19.2079 10.8276C19.2491 10.9237 19.2705 11.0271 19.271 11.1316C19.2716 11.2362 19.2511 11.3397 19.2108 11.4362C19.1706 11.5326 19.1114 11.6201 19.0368 11.6932C18.9622 11.7664 18.8736 11.8239 18.7764 11.8622Z" fill="#E2FF02"/>
</g>
</g>
</g>
<defs>
<clipPath id="clip0_0_10">
<rect width="25" height="25" fill="white" transform="translate(0.5 0.988159)"/>
</clipPath>
<clipPath id="clip1_0_10">
<rect width="25" height="25" fill="white" transform="translate(0.5 0.988159)"/>
</clipPath>
</defs>
</svg>
